<mxfile host="65bd71144e">
    <diagram name="Page-1" id="efa7a0a1-bf9b-a30e-e6df-94a7791c09e9">
        <mxGraphModel dx="1886" dy="885" grid="1" gridSize="10" guides="1" tooltips="1" connect="1" arrows="1" fold="1" page="1" pageScale="1" pageWidth="826" pageHeight="1169" background="none" math="0" shadow="0">
            <root>
                <mxCell id="0"/>
                <mxCell id="1" parent="0"/>
                <mxCell id="25" value="&lt;p style=&quot;text-align: center ; margin: 4px 0px 0px ; text-decoration: underline&quot;&gt;&lt;b&gt;使用者&lt;/b&gt;&lt;/p&gt;&lt;p style=&quot;text-align: center ; margin: 4px 0px 0px ; text-decoration: underline&quot;&gt;&lt;strong&gt;Users&lt;/strong&gt;&lt;/p&gt;&lt;hr&gt;&lt;p style=&quot;margin: 0px 0px 0px 8px&quot;&gt;&lt;u&gt;userId&lt;/u&gt;&lt;/p&gt;&lt;p style=&quot;margin: 0px 0px 0px 8px&quot;&gt;userName&lt;/p&gt;&lt;p style=&quot;margin: 0px 0px 0px 8px&quot;&gt;userAccount&lt;br&gt;&lt;/p&gt;&lt;p style=&quot;margin: 0px 0px 0px 8px&quot;&gt;userPassword&lt;/p&gt;&lt;p style=&quot;margin: 0px 0px 0px 8px&quot;&gt;userPhoto&lt;/p&gt;&lt;p style=&quot;margin: 0px 0px 0px 8px&quot;&gt;userPhone&lt;br&gt;&lt;/p&gt;&lt;p style=&quot;margin: 0px 0px 0px 8px&quot;&gt;userEmail&lt;/p&gt;&lt;p style=&quot;margin: 0px 0px 0px 8px&quot;&gt;&lt;span&gt;userExpenience&lt;/span&gt;&lt;br&gt;&lt;/p&gt;&lt;p style=&quot;margin: 0px 0px 0px 8px&quot;&gt;&lt;br&gt;&lt;/p&gt;" style="verticalAlign=top;align=left;overflow=fill;fontSize=12;fontFamily=Times New Roman;html=1;strokeColor=#666666;shadow=1;fillColor=#f5f5f5;gradientColor=#b3b3b3;fontColor=#000000;" parent="1" vertex="1">
                    <mxGeometry x="-760" y="40" width="160" height="180" as="geometry"/>
                </mxCell>
                <mxCell id="5XHWenP0DDk_uuIquULA-114" value="&lt;p style=&quot;text-align: center ; margin: 4px 0px 0px ; text-decoration: underline&quot;&gt;&lt;b&gt;能力表&lt;/b&gt;&lt;/p&gt;&lt;p style=&quot;text-align: center ; margin: 4px 0px 0px ; text-decoration: underline&quot;&gt;&lt;strong&gt;UserStats&lt;/strong&gt;&lt;/p&gt;&lt;hr&gt;&lt;p style=&quot;margin: 0px ; margin-left: 8px&quot;&gt;&lt;u&gt;userId&lt;/u&gt;&lt;/p&gt;&lt;p style=&quot;margin: 0px ; margin-left: 8px&quot;&gt;leadership&lt;/p&gt;&lt;p style=&quot;margin: 0px ; margin-left: 8px&quot;&gt;teamwork&lt;/p&gt;&lt;p style=&quot;margin: 0px ; margin-left: 8px&quot;&gt;strength&lt;/p&gt;&lt;p style=&quot;margin: 0px ; margin-left: 8px&quot;&gt;heal&lt;/p&gt;&lt;p style=&quot;margin: 0px ; margin-left: 8px&quot;&gt;surriral&lt;/p&gt;&lt;p style=&quot;margin: 0px ; margin-left: 8px&quot;&gt;direction&lt;/p&gt;&lt;p style=&quot;margin: 0px ; margin-left: 8px&quot;&gt;commentCount&lt;/p&gt;" style="verticalAlign=top;align=left;overflow=fill;fontSize=12;fontFamily=Times New Roman;html=1;strokeColor=#666666;shadow=1;fillColor=#f5f5f5;gradientColor=#b3b3b3;fontColor=#000000;" parent="1" vertex="1">
                    <mxGeometry x="-520" y="120" width="160" height="178.36" as="geometry"/>
                </mxCell>
                <mxCell id="5XHWenP0DDk_uuIquULA-118" value="&lt;p style=&quot;text-align: center ; margin: 4px 0px 0px ; text-decoration: underline&quot;&gt;&lt;b&gt;行程管理聊天室&lt;/b&gt;&lt;/p&gt;&lt;p style=&quot;text-align: center ; margin: 4px 0px 0px&quot;&gt;&lt;b&gt;&lt;u&gt;tripChatBoard&lt;/u&gt;&lt;/b&gt;&lt;br&gt;&lt;/p&gt;&lt;hr&gt;&lt;p style=&quot;margin: 0px ; margin-left: 8px&quot;&gt;&lt;u&gt;tripId&lt;/u&gt;&lt;/p&gt;&lt;p style=&quot;margin: 0px ; margin-left: 8px&quot;&gt;userId&lt;/p&gt;&lt;p style=&quot;margin: 0px ; margin-left: 8px&quot;&gt;chatTime&lt;/p&gt;&lt;p style=&quot;margin: 0px ; margin-left: 8px&quot;&gt;chatMessage&lt;/p&gt;&lt;p style=&quot;margin: 0px ; margin-left: 8px&quot;&gt;chatPhoto&lt;/p&gt;" style="verticalAlign=top;align=left;overflow=fill;fontSize=12;fontFamily=Times New Roman;html=1;strokeColor=#666666;shadow=1;fillColor=#f5f5f5;gradientColor=#b3b3b3;fontColor=#000000;" parent="1" vertex="1">
                    <mxGeometry x="-40" y="440" width="160" height="140" as="geometry"/>
                </mxCell>
                <mxCell id="26" value="&lt;p style=&quot;text-align: center ; margin: 4px 0px 0px ; text-decoration: underline&quot;&gt;&lt;b&gt;私人裝備&lt;/b&gt;&lt;/p&gt;&lt;p style=&quot;text-align: center ; margin: 4px 0px 0px ; text-decoration: underline&quot;&gt;&lt;strong&gt;PrivateItems&lt;/strong&gt;&lt;/p&gt;&lt;hr&gt;&lt;p style=&quot;margin: 0px ; margin-left: 8px&quot;&gt;&lt;u&gt;tripId&lt;/u&gt;&lt;/p&gt;&lt;p style=&quot;margin: 0px ; margin-left: 8px&quot;&gt;privateItemName&lt;/p&gt;&lt;p style=&quot;margin: 0px ; margin-left: 8px&quot;&gt;itemCount&lt;br&gt;&lt;/p&gt;&lt;p style=&quot;margin: 0px ; margin-left: 8px&quot;&gt;&lt;br&gt;&lt;/p&gt;" style="verticalAlign=top;align=left;overflow=fill;fontSize=12;fontFamily=Times New Roman;html=1;strokeColor=#666666;shadow=1;fillColor=#f5f5f5;gradientColor=#b3b3b3;fontColor=#000000;" parent="1" vertex="1">
                    <mxGeometry x="-520" y="630" width="160" height="100" as="geometry"/>
                </mxCell>
                <mxCell id="27" value="&lt;p style=&quot;text-align: center ; margin: 4px 0px 0px ; text-decoration: underline&quot;&gt;&lt;b&gt;公用裝備&lt;/b&gt;&lt;/p&gt;&lt;p style=&quot;text-align: center ; margin: 4px 0px 0px ; text-decoration: underline&quot;&gt;&lt;strong&gt;ShareItems&lt;/strong&gt;&lt;/p&gt;&lt;hr&gt;&lt;p style=&quot;margin: 0px ; margin-left: 8px&quot;&gt;&lt;u&gt;tripId&lt;/u&gt;&lt;/p&gt;&lt;p style=&quot;margin: 0px ; margin-left: 8px&quot;&gt;userId&lt;u&gt;&lt;br&gt;&lt;/u&gt;&lt;/p&gt;&lt;p style=&quot;margin: 0px ; margin-left: 8px&quot;&gt;sharedItemName&lt;/p&gt;&lt;p style=&quot;margin: 0px ; margin-left: 8px&quot;&gt;itemCount&lt;/p&gt;&lt;p style=&quot;margin: 0px ; margin-left: 8px&quot;&gt;&lt;br&gt;&lt;/p&gt;" style="verticalAlign=top;align=left;overflow=fill;fontSize=12;fontFamily=Times New Roman;html=1;strokeColor=#666666;shadow=1;fillColor=#f5f5f5;gradientColor=#b3b3b3;fontColor=#000000;" parent="1" vertex="1">
                    <mxGeometry x="-280" y="440" width="160" height="116.64" as="geometry"/>
                </mxCell>
                <mxCell id="28" value="&lt;p style=&quot;text-align: center ; margin: 4px 0px 0px ; text-decoration: underline&quot;&gt;景點&lt;/p&gt;&lt;p style=&quot;text-align: center ; margin: 4px 0px 0px ; text-decoration: underline&quot;&gt;&lt;strong&gt;Spots&lt;/strong&gt;&lt;/p&gt;&lt;hr&gt;&lt;p style=&quot;margin: 0px ; margin-left: 8px&quot;&gt;&lt;u&gt;spotId&lt;/u&gt;&lt;/p&gt;&lt;p style=&quot;margin: 0px ; margin-left: 8px&quot;&gt;spotName&lt;/p&gt;&lt;p style=&quot;margin: 0px ; margin-left: 8px&quot;&gt;spotDetail&lt;/p&gt;&lt;p style=&quot;margin: 0px ; margin-left: 8px&quot;&gt;spotImg&lt;/p&gt;&lt;p style=&quot;margin: 0px ; margin-left: 8px&quot;&gt;spotArea&lt;/p&gt;" style="verticalAlign=top;align=left;overflow=fill;fontSize=12;fontFamily=Times New Roman;html=1;strokeColor=#666666;shadow=1;fillColor=#f5f5f5;gradientColor=#b3b3b3;fontColor=#000000;" parent="1" vertex="1">
                    <mxGeometry x="-280" y="40" width="160" height="130" as="geometry"/>
                </mxCell>
                <mxCell id="29" value="&lt;p style=&quot;text-align: center ; margin: 4px 0px 0px ; text-decoration: underline&quot;&gt;景點留言板&lt;/p&gt;&lt;p style=&quot;text-align: center ; margin: 4px 0px 0px&quot;&gt;&lt;b&gt;&lt;u&gt;spotComments&lt;/u&gt;&lt;/b&gt;&lt;br&gt;&lt;/p&gt;&lt;hr&gt;&lt;p style=&quot;margin: 0px ; margin-left: 8px&quot;&gt;&lt;u&gt;spotId&lt;/u&gt;&lt;/p&gt;&lt;p style=&quot;margin: 0px ; margin-left: 8px&quot;&gt;userId&lt;/p&gt;&lt;p style=&quot;margin: 0px ; margin-left: 8px&quot;&gt;spotMessageDate&lt;/p&gt;&lt;p style=&quot;margin: 0px ; margin-left: 8px&quot;&gt;spotMessageText&lt;/p&gt;&lt;p style=&quot;margin: 0px ; margin-left: 8px&quot;&gt;spotMessageImg&lt;/p&gt;" style="verticalAlign=top;align=left;overflow=fill;fontSize=12;fontFamily=Times New Roman;html=1;strokeColor=#666666;shadow=1;fillColor=#f5f5f5;gradientColor=#b3b3b3;fontColor=#000000;" parent="1" vertex="1">
                    <mxGeometry x="-40" y="120" width="160" height="140" as="geometry"/>
                </mxCell>
                <mxCell id="30" value="&lt;p style=&quot;text-align: center ; margin: 4px 0px 0px ; text-decoration: underline&quot;&gt;行程詳情&lt;/p&gt;&lt;p style=&quot;text-align: center ; margin: 4px 0px 0px ; text-decoration: underline&quot;&gt;&lt;b&gt;Trips&lt;/b&gt;&lt;/p&gt;&lt;hr&gt;&lt;p style=&quot;margin: 0px ; margin-left: 8px&quot;&gt;&lt;u&gt;tripId&lt;/u&gt;&lt;/p&gt;&lt;p style=&quot;margin: 0px ; margin-left: 8px&quot;&gt;tripName&lt;/p&gt;&lt;p style=&quot;margin: 0px ; margin-left: 8px&quot;&gt;spotId&lt;/p&gt;&lt;p style=&quot;margin: 0px ; margin-left: 8px&quot;&gt;tripStartDate&lt;/p&gt;&lt;p style=&quot;margin: 0px ; margin-left: 8px&quot;&gt;tripEndDate&lt;/p&gt;&lt;p style=&quot;margin: 0px ; margin-left: 8px&quot;&gt;tripDesc&lt;/p&gt;" style="verticalAlign=top;align=left;overflow=fill;fontSize=12;fontFamily=Times New Roman;html=1;strokeColor=#666666;shadow=1;fillColor=#f5f5f5;gradientColor=#b3b3b3;fontColor=#000000;" parent="1" vertex="1">
                    <mxGeometry x="-760" y="360" width="160" height="150" as="geometry"/>
                </mxCell>
                <mxCell id="31" value="&lt;p style=&quot;text-align: center ; margin: 4px 0px 0px ; text-decoration: underline&quot;&gt;行程表&lt;/p&gt;&lt;p style=&quot;text-align: center ; margin: 4px 0px 0px ; text-decoration: underline&quot;&gt;&lt;b&gt;schedules&lt;/b&gt;&lt;/p&gt;&lt;hr&gt;&lt;p style=&quot;margin: 0px ; margin-left: 8px&quot;&gt;&lt;u&gt;tripId&lt;/u&gt;&lt;/p&gt;&lt;p style=&quot;margin: 0px ; margin-left: 8px&quot;&gt;day&lt;/p&gt;&lt;p style=&quot;margin: 0px ; margin-left: 8px&quot;&gt;startTime&lt;/p&gt;&lt;p style=&quot;margin: 0px ; margin-left: 8px&quot;&gt;activity&lt;/p&gt;" style="verticalAlign=top;align=left;overflow=fill;fontSize=12;fontFamily=Times New Roman;html=1;strokeColor=#666666;shadow=1;fillColor=#f5f5f5;gradientColor=#b3b3b3;fontColor=#000000;" parent="1" vertex="1">
                    <mxGeometry x="-280" y="640" width="160" height="120" as="geometry"/>
                </mxCell>
                <mxCell id="32" value="&lt;p style=&quot;text-align: center ; margin: 4px 0px 0px ; text-decoration: underline&quot;&gt;行程成員&lt;/p&gt;&lt;p style=&quot;text-align: center ; margin: 4px 0px 0px ; text-decoration: underline&quot;&gt;&lt;b&gt;TripMembers&lt;/b&gt;&lt;/p&gt;&lt;hr&gt;&lt;p style=&quot;margin: 0px ; margin-left: 8px&quot;&gt;&lt;u&gt;tripId&lt;/u&gt;&lt;/p&gt;&lt;p style=&quot;margin: 0px ; margin-left: 8px&quot;&gt;userId&lt;/p&gt;&lt;p style=&quot;margin: 0px ; margin-left: 8px&quot;&gt;positionState&lt;/p&gt;" style="verticalAlign=top;align=left;overflow=fill;fontSize=12;fontFamily=Times New Roman;html=1;strokeColor=#666666;shadow=1;fillColor=#f5f5f5;gradientColor=#b3b3b3;fontColor=#000000;" parent="1" vertex="1">
                    <mxGeometry x="-520" y="440" width="160" height="110" as="geometry"/>
                </mxCell>
                <mxCell id="54" value="" style="endArrow=classic;html=1;entryX=-0.008;entryY=0.332;entryDx=0;entryDy=0;entryPerimeter=0;rounded=0;" edge="1" parent="1" target="5XHWenP0DDk_uuIquULA-114">
                    <mxGeometry width="50" height="50" relative="1" as="geometry">
                        <mxPoint x="-600" y="100" as="sourcePoint"/>
                        <mxPoint x="-490" y="250" as="targetPoint"/>
                        <Array as="points">
                            <mxPoint x="-560" y="100"/>
                            <mxPoint x="-560" y="179"/>
                        </Array>
                    </mxGeometry>
                </mxCell>
                <mxCell id="56" value="" style="endArrow=classic;html=1;rounded=0;exitX=1.007;exitY=0.408;exitDx=0;exitDy=0;exitPerimeter=0;" edge="1" parent="1" source="30">
                    <mxGeometry width="50" height="50" relative="1" as="geometry">
                        <mxPoint x="-580" y="430" as="sourcePoint"/>
                        <mxPoint x="-40" y="498" as="targetPoint"/>
                        <Array as="points">
                            <mxPoint x="-80" y="421"/>
                            <mxPoint x="-80" y="498"/>
                        </Array>
                    </mxGeometry>
                </mxCell>
                <mxCell id="57" value="" style="endArrow=classic;html=1;rounded=0;entryX=0;entryY=0.6;entryDx=0;entryDy=0;entryPerimeter=0;" edge="1" parent="1">
                    <mxGeometry width="50" height="50" relative="1" as="geometry">
                        <mxPoint x="-560" y="421" as="sourcePoint"/>
                        <mxPoint x="-520" y="691" as="targetPoint"/>
                        <Array as="points">
                            <mxPoint x="-560" y="691"/>
                        </Array>
                    </mxGeometry>
                </mxCell>
                <mxCell id="58" value="" style="endArrow=classic;html=1;rounded=0;entryX=-0.011;entryY=0.545;entryDx=0;entryDy=0;entryPerimeter=0;" edge="1" parent="1" target="32">
                    <mxGeometry width="50" height="50" relative="1" as="geometry">
                        <mxPoint x="-560" y="500" as="sourcePoint"/>
                        <mxPoint x="-510" y="470" as="targetPoint"/>
                    </mxGeometry>
                </mxCell>
                <mxCell id="59" value="" style="endArrow=classic;html=1;rounded=0;entryX=0;entryY=0.5;entryDx=0;entryDy=0;" edge="1" parent="1">
                    <mxGeometry width="50" height="50" relative="1" as="geometry">
                        <mxPoint x="-320" y="421" as="sourcePoint"/>
                        <mxPoint x="-280" y="701" as="targetPoint"/>
                        <Array as="points">
                            <mxPoint x="-320" y="701"/>
                        </Array>
                    </mxGeometry>
                </mxCell>
                <mxCell id="60" value="" style="endArrow=classic;html=1;rounded=0;entryX=-0.008;entryY=0.514;entryDx=0;entryDy=0;entryPerimeter=0;" edge="1" parent="1" target="27">
                    <mxGeometry width="50" height="50" relative="1" as="geometry">
                        <mxPoint x="-320" y="500" as="sourcePoint"/>
                        <mxPoint x="-300" y="498" as="targetPoint"/>
                    </mxGeometry>
                </mxCell>
                <mxCell id="61" value="" style="endArrow=classic;html=1;rounded=0;exitX=1;exitY=0.462;exitDx=0;exitDy=0;exitPerimeter=0;entryX=0;entryY=0.429;entryDx=0;entryDy=0;entryPerimeter=0;" edge="1" parent="1" source="28" target="29">
                    <mxGeometry width="50" height="50" relative="1" as="geometry">
                        <mxPoint x="-90" y="100" as="sourcePoint"/>
                        <mxPoint x="-60" y="240" as="targetPoint"/>
                        <Array as="points">
                            <mxPoint x="-80" y="100"/>
                            <mxPoint x="-80" y="180"/>
                        </Array>
                    </mxGeometry>
                </mxCell>
                <mxCell id="62" value="" style="endArrow=classic;html=1;rounded=0;entryX=-0.008;entryY=0.688;entryDx=0;entryDy=0;entryPerimeter=0;exitX=1;exitY=0.356;exitDx=0;exitDy=0;exitPerimeter=0;" edge="1" parent="1" source="25" target="32">
                    <mxGeometry width="50" height="50" relative="1" as="geometry">
                        <mxPoint x="-590" y="104" as="sourcePoint"/>
                        <mxPoint x="-530" y="520" as="targetPoint"/>
                        <Array as="points">
                            <mxPoint x="-580" y="104"/>
                            <mxPoint x="-580" y="516"/>
                        </Array>
                    </mxGeometry>
                </mxCell>
                <mxCell id="63" value="" style="endArrow=classic;html=1;rounded=0;entryX=-0.01;entryY=0.527;entryDx=0;entryDy=0;entryPerimeter=0;" edge="1" parent="1" target="29">
                    <mxGeometry width="50" height="50" relative="1" as="geometry">
                        <mxPoint x="-580" y="360" as="sourcePoint"/>
                        <mxPoint x="-50" y="200" as="targetPoint"/>
                        <Array as="points">
                            <mxPoint x="-80" y="360"/>
                            <mxPoint x="-80" y="194"/>
                        </Array>
                    </mxGeometry>
                </mxCell>
                <mxCell id="64" value="" style="endArrow=classic;html=1;rounded=0;entryX=-0.002;entryY=0.643;entryDx=0;entryDy=0;entryPerimeter=0;" edge="1" parent="1" target="27">
                    <mxGeometry width="50" height="50" relative="1" as="geometry">
                        <mxPoint x="-340" y="360" as="sourcePoint"/>
                        <mxPoint x="-280" y="515" as="targetPoint"/>
                        <Array as="points">
                            <mxPoint x="-340" y="515"/>
                        </Array>
                    </mxGeometry>
                </mxCell>
                <mxCell id="65" value="" style="endArrow=classic;html=1;rounded=0;entryX=-0.008;entryY=0.529;entryDx=0;entryDy=0;entryPerimeter=0;" edge="1" parent="1" target="5XHWenP0DDk_uuIquULA-118">
                    <mxGeometry width="50" height="50" relative="1" as="geometry">
                        <mxPoint x="-100" y="360" as="sourcePoint"/>
                        <mxPoint x="-40" y="510" as="targetPoint"/>
                        <Array as="points">
                            <mxPoint x="-100" y="514"/>
                        </Array>
                    </mxGeometry>
                </mxCell>
            </root>
        </mxGraphModel>
    </diagram>
</mxfile>